<svg width="184" height="130" viewBox="0 0 184 130" fill="none" xmlns="http://www.w3.org/2000/svg">
<rect width="184" height="130" rx="10" fill="#FAFAFA"/>
<rect x="20" y="39" width="49" height="8" rx="4" fill="#DBDFFB"/>
<rect x="20.5" y="52.5" width="142" height="32" rx="5.5" fill="white" stroke="#F5F5F5"/>
<path d="M145.625 62.875C145.624 62.71 145.558 62.5521 145.44 62.4358C145.323 62.3195 145.165 62.2543 145 62.2543C144.835 62.2543 144.677 62.3195 144.56 62.4358C144.442 62.5521 144.376 62.71 144.375 62.875H140.625C140.624 62.71 140.558 62.5521 140.44 62.4358C140.323 62.3195 140.165 62.2543 140 62.2543C139.835 62.2543 139.677 62.3195 139.56 62.4358C139.442 62.5521 139.376 62.71 139.375 62.875C138.546 62.876 137.752 63.2055 137.166 63.7914C136.581 64.3772 136.251 65.1715 136.25 66V71.625C136.251 72.4535 136.581 73.2478 137.166 73.8336C137.752 74.4195 138.546 74.749 139.375 74.75H145.625C146.453 74.749 147.248 74.4195 147.834 73.8336C148.419 73.2478 148.749 72.4535 148.75 71.625V66C148.749 65.1715 148.419 64.3772 147.834 63.7914C147.248 63.2055 146.454 62.876 145.625 62.875V62.875ZM139.375 64.125V64.75C139.376 64.915 139.442 65.0729 139.56 65.1892C139.677 65.3055 139.835 65.3708 140 65.3708C140.165 65.3708 140.323 65.3055 140.44 65.1892C140.558 65.0729 140.624 64.915 140.625 64.75V64.125H144.375V64.75C144.376 64.915 144.442 65.0729 144.56 65.1892C144.677 65.3055 144.835 65.3708 145 65.3708C145.165 65.3708 145.323 65.3055 145.44 65.1892C145.558 65.0729 145.624 64.915 145.625 64.75V64.125C146.122 64.1256 146.599 64.3233 146.95 64.6748C147.302 65.0263 147.499 65.5029 147.5 66H137.5C137.501 65.5029 137.698 65.0263 138.05 64.6748C138.401 64.3233 138.878 64.1256 139.375 64.125V64.125ZM145.625 73.5H139.375C138.878 73.4995 138.401 73.3018 138.05 72.9502C137.698 72.5987 137.501 72.1221 137.5 71.625V67.25H147.5V71.625C147.499 72.1221 147.302 72.5987 146.95 72.9502C146.599 73.3018 146.122 73.4995 145.625 73.5V73.5ZM145.625 69.125C145.625 69.2486 145.588 69.3695 145.52 69.4723C145.451 69.575 145.353 69.6552 145.239 69.7025C145.125 69.7498 144.999 69.7622 144.878 69.738C144.757 69.7139 144.645 69.6544 144.558 69.567C144.471 69.4796 144.411 69.3682 144.387 69.247C144.363 69.1257 144.375 69.0001 144.423 68.8859C144.47 68.7716 144.55 68.674 144.653 68.6053C144.756 68.5367 144.876 68.5 145 68.5C145.166 68.5 145.325 68.5659 145.442 68.6831C145.559 68.8003 145.625 68.9592 145.625 69.125V69.125ZM143.125 69.125C143.125 69.2486 143.088 69.3694 143.02 69.4722C142.951 69.575 142.853 69.6551 142.739 69.7024C142.625 69.7497 142.499 69.7621 142.378 69.738C142.257 69.7139 142.145 69.6543 142.058 69.5669C141.971 69.4795 141.911 69.3682 141.887 69.2469C141.863 69.1257 141.875 69 141.923 68.8858C141.97 68.7716 142.05 68.674 142.153 68.6053C142.256 68.5367 142.376 68.5 142.5 68.5C142.666 68.5 142.825 68.5659 142.942 68.6831C143.059 68.8003 143.125 68.9592 143.125 69.125V69.125ZM140.625 69.125C140.625 69.2486 140.588 69.3695 140.52 69.4723C140.451 69.575 140.353 69.6552 140.239 69.7025C140.125 69.7498 139.999 69.7622 139.878 69.738C139.757 69.7139 139.645 69.6544 139.558 69.567C139.471 69.4796 139.411 69.3682 139.387 69.247C139.363 69.1257 139.375 69 139.423 68.8858C139.47 68.7716 139.55 68.674 139.653 68.6053C139.756 68.5367 139.876 68.5 140 68.5C140.166 68.5 140.325 68.5659 140.442 68.6831C140.559 68.8003 140.625 68.9592 140.625 69.125V69.125ZM145.625 71.625C145.625 71.7486 145.588 71.8695 145.52 71.9723C145.451 72.075 145.353 72.1552 145.239 72.2025C145.125 72.2498 144.999 72.2621 144.878 72.238C144.757 72.2139 144.645 72.1544 144.558 72.067C144.471 71.9796 144.411 71.8682 144.387 71.747C144.363 71.6257 144.375 71.5 144.423 71.3858C144.47 71.2716 144.55 71.174 144.653 71.1053C144.756 71.0367 144.876 71 145 71C145.166 71 145.325 71.0659 145.442 71.1831C145.559 71.3003 145.625 71.4593 145.625 71.625V71.625ZM143.125 71.625C143.125 71.7486 143.088 71.8695 143.02 71.9722C142.951 72.075 142.853 72.1551 142.739 72.2024C142.625 72.2497 142.499 72.2621 142.378 72.238C142.257 72.2139 142.145 72.1543 142.058 72.0669C141.971 71.9795 141.911 71.8681 141.887 71.7469C141.863 71.6257 141.875 71.5 141.923 71.3858C141.97 71.2716 142.05 71.174 142.153 71.1053C142.256 71.0367 142.376 71 142.5 71C142.582 71 142.663 71.0162 142.739 71.0476C142.815 71.079 142.884 71.125 142.942 71.1831C143 71.2411 143.046 71.31 143.077 71.3858C143.109 71.4617 143.125 71.5429 143.125 71.625V71.625ZM140.625 71.625C140.625 71.7486 140.588 71.8695 140.52 71.9723C140.451 72.0751 140.353 72.1552 140.239 72.2025C140.125 72.2498 139.999 72.2621 139.878 72.238C139.757 72.2139 139.645 72.1544 139.558 72.067C139.471 71.9796 139.411 71.8682 139.387 71.7469C139.363 71.6257 139.375 71.5 139.423 71.3858C139.47 71.2716 139.55 71.174 139.653 71.1053C139.756 71.0366 139.876 71 140 71C140.166 71 140.325 71.0659 140.442 71.1831C140.559 71.3003 140.625 71.4593 140.625 71.625V71.625Z" fill="#3C2BFE"/>
</svg>
