<svg width="184" height="130" viewBox="0 0 184 130" fill="none" xmlns="http://www.w3.org/2000/svg">
<rect width="184" height="130" rx="10" fill="#FAFAFA"/>
<rect x="32.1588" y="59.0159" width="11.9683" height="11.9683" rx="2.7619" fill="#3C2BFE"/>
<rect x="54.254" y="37.8413" width="97.5873" height="7.36508" rx="3.68254" fill="#DBDFFB"/>
<rect x="54.254" y="83.873" width="97.5873" height="7.36508" rx="3.68254" fill="#DBDFFB"/>
<rect x="54.254" y="60.8572" width="97.5873" height="7.36508" rx="3.68254" fill="#DBDFFB"/>
<rect x="32.1588" y="36" width="11.9683" height="11.9683" rx="2.7619" fill="#3C2BFE"/>
<path d="M41.9869 39.4572C42.3086 39.7705 42.3086 40.2771 41.9869 40.5904L37.873 44.5975C37.7126 44.7538 37.5019 44.8323 37.2913 44.8323C37.0807 44.8323 36.87 44.7538 36.7096 44.5975L34.2413 42.1933C33.9196 41.8799 33.9196 41.3734 34.2413 41.06C34.563 40.7467 35.083 40.7467 35.4047 41.06L37.2913 42.8977L40.8235 39.4572C41.1452 39.1438 41.6652 39.1438 41.9869 39.4572Z" fill="white"/>
<rect x="32.1588" y="82.0317" width="11.9683" height="11.9683" rx="2.7619" fill="#3C2BFE"/>
<path d="M41.9869 85.489C42.3086 85.8024 42.3086 86.3089 41.9869 86.6223L37.873 90.6294C37.7126 90.7856 37.5019 90.8641 37.2913 90.8641C37.0807 90.8641 36.87 90.7856 36.7096 90.6294L34.2413 88.2251C33.9196 87.9118 33.9196 87.4052 34.2413 87.0919C34.563 86.7785 35.083 86.7785 35.4047 87.0919L37.2913 88.9296L40.8235 85.489C41.1452 85.1757 41.6652 85.1757 41.9869 85.489Z" fill="white"/>
</svg>
