<svg width="523" height="452" viewBox="0 0 523 452" fill="none" xmlns="http://www.w3.org/2000/svg">
<circle cx="269" cy="225" r="208" fill="#9C9C9C" fill-opacity="0.1"/>
<path d="M272.851 208.575C273.735 204.198 271.213 200.399 266.837 199.514C262.46 198.63 258.661 201.151 257.776 205.528C256.892 209.904 259.414 213.704 263.79 214.588C268.166 215.473 271.966 212.951 272.851 208.575Z" fill="#54F996"/>
<path d="M282.623 210.551C284.652 200.513 278.85 191.771 268.811 189.742C258.773 187.713 250.031 193.515 248.003 203.554C245.974 213.592 251.776 222.334 261.814 224.363C271.853 226.392 280.594 220.59 282.623 210.551Z" stroke="#D2D7DB" stroke-width="0.908475"/>
<path d="M291.452 212.337C294.517 197.172 285.761 183.98 270.596 180.915C255.431 177.85 242.239 186.606 239.174 201.771C236.109 216.935 244.865 230.127 260.03 233.192C275.195 236.257 288.387 227.501 291.452 212.337Z" stroke="#D2D7DB" stroke-width="0.908475"/>
<g filter="url(#filter0_d)">
<rect x="297.544" y="102.64" width="180.332" height="145.356" transform="rotate(-6.57368 297.544 102.64)" fill="white"/>
</g>
<path d="M385.542 168.034L366.766 170.197L364.431 181.317L353.044 182.629L366.402 128.428L376.325 127.285L401.768 177.014L390.381 178.326L385.542 168.034ZM368.658 161.19L381.651 159.693L372.877 140.992L368.658 161.19ZM428.776 173.902C428.193 173.029 427.715 171.914 427.341 170.559C425.164 173.631 422.076 175.397 418.078 175.858C414.294 176.294 411.027 175.561 408.276 173.66C405.549 171.756 403.994 169.138 403.61 165.807C403.138 161.714 404.287 158.399 407.057 155.861C409.851 153.321 414.114 151.708 419.846 151.024L424.593 150.476L424.338 148.263C424.132 146.479 423.504 145.104 422.452 144.14C421.425 143.174 419.923 142.804 417.948 143.032C416.211 143.232 414.891 143.806 413.987 144.754C413.108 145.7 412.751 146.898 412.919 148.35L402.603 149.538C402.345 147.301 402.797 145.152 403.958 143.089C405.118 141.026 406.898 139.314 409.297 137.952C411.694 136.567 414.462 135.694 417.603 135.332C422.363 134.783 426.273 135.55 429.334 137.633C432.416 139.689 434.207 142.882 434.706 147.213L436.635 163.954C437.081 167.616 437.912 170.329 439.129 172.094L439.198 172.701L428.776 173.902ZM419.418 167.71C420.941 167.535 422.306 167.04 423.515 166.226C424.72 165.387 425.566 164.362 426.053 163.148L425.288 156.509L421.433 156.953C416.269 157.548 413.727 159.65 413.805 163.257L413.839 163.868C413.987 165.153 414.561 166.16 415.562 166.889C416.562 167.618 417.847 167.891 419.418 167.71Z" fill="#14142B"/>
<path d="M352.873 204.576L351.598 202.784L351.302 202.818L351.523 204.732L350.288 204.874L349.704 199.805L351.776 199.567C352.176 199.521 352.523 199.551 352.818 199.659C353.119 199.766 353.353 199.934 353.52 200.163C353.688 200.388 353.789 200.649 353.823 200.948C353.862 201.285 353.8 201.597 353.638 201.883C353.481 202.17 353.223 202.39 352.866 202.543L354.267 204.415L352.873 204.576ZM351.202 201.945L351.967 201.857C352.193 201.83 352.355 201.756 352.453 201.632C352.556 201.508 352.596 201.345 352.573 201.143C352.55 200.95 352.475 200.805 352.347 200.708C352.223 200.61 352.049 200.574 351.822 200.6L351.057 200.688L351.202 201.945ZM358.755 203.949C358.278 204.004 357.828 203.944 357.403 203.769C356.982 203.593 356.632 203.321 356.35 202.954C356.073 202.581 355.906 202.146 355.849 201.651C355.792 201.155 355.856 200.696 356.042 200.275C356.232 199.853 356.512 199.509 356.881 199.242C357.255 198.974 357.68 198.813 358.157 198.758C358.633 198.703 359.081 198.764 359.502 198.94C359.927 199.115 360.275 199.387 360.547 199.756C360.823 200.124 360.99 200.556 361.047 201.052C361.104 201.547 361.04 202.008 360.855 202.434C360.67 202.856 360.393 203.2 360.023 203.467C359.654 203.734 359.231 203.895 358.755 203.949ZM358.625 202.823C359.029 202.777 359.336 202.605 359.546 202.307C359.76 202.01 359.842 201.639 359.791 201.196C359.739 200.749 359.576 200.407 359.3 200.17C359.028 199.928 358.69 199.831 358.286 199.877C357.876 199.925 357.564 200.095 357.349 200.388C357.139 200.68 357.06 201.053 357.112 201.505C357.164 201.953 357.326 202.297 357.597 202.539C357.873 202.776 358.216 202.87 358.625 202.823ZM366.151 200.412C366.451 200.441 366.704 200.561 366.909 200.771C367.113 200.977 367.232 201.227 367.266 201.52C367.315 201.944 367.204 202.298 366.935 202.583C366.669 202.862 366.272 203.032 365.743 203.093L363.382 203.365L362.798 198.297L365.079 198.034C365.594 197.974 366.01 198.046 366.326 198.249C366.646 198.451 366.83 198.754 366.877 199.158C366.911 199.456 366.86 199.714 366.724 199.929C366.593 200.144 366.402 200.305 366.151 200.412ZM364.268 200.205L365.077 200.112C365.279 200.088 365.428 200.027 365.524 199.928C365.624 199.824 365.664 199.685 365.644 199.512C365.625 199.339 365.554 199.213 365.433 199.134C365.316 199.055 365.157 199.027 364.955 199.05L364.146 199.144L364.268 200.205ZM365.411 202.122C365.618 202.098 365.772 202.034 365.872 201.93C365.976 201.82 366.018 201.676 365.998 201.498C365.977 201.32 365.901 201.187 365.769 201.1C365.642 201.012 365.475 200.98 365.268 201.004L364.372 201.107L364.501 202.226L365.411 202.122ZM371.898 202.435C371.421 202.49 370.97 202.43 370.545 202.254C370.125 202.078 369.774 201.807 369.493 201.439C369.216 201.066 369.049 200.632 368.992 200.136C368.934 199.64 368.999 199.182 369.184 198.76C369.375 198.339 369.654 197.994 370.024 197.727C370.398 197.46 370.823 197.299 371.299 197.244C371.776 197.189 372.224 197.249 372.644 197.425C373.069 197.601 373.418 197.873 373.689 198.241C373.966 198.609 374.133 199.041 374.19 199.537C374.247 200.033 374.183 200.494 373.998 200.92C373.813 201.341 373.535 201.685 373.166 201.952C372.797 202.219 372.374 202.38 371.898 202.435ZM371.768 201.309C372.172 201.262 372.479 201.09 372.689 200.793C372.903 200.495 372.985 200.125 372.934 199.682C372.882 199.234 372.718 198.892 372.442 198.656C372.171 198.414 371.833 198.316 371.428 198.363C371.019 198.41 370.707 198.58 370.492 198.873C370.282 199.166 370.203 199.538 370.255 199.99C370.307 200.438 370.468 200.783 370.74 201.025C371.016 201.261 371.359 201.356 371.768 201.309ZM379.586 196.362L379.7 197.351L378.357 197.506L378.827 201.585L377.593 201.727L377.123 197.648L375.78 197.803L375.666 196.814L379.586 196.362ZM384.547 200.977C384.07 201.032 383.619 200.972 383.194 200.797C382.774 200.621 382.423 200.349 382.142 199.981C381.865 199.609 381.698 199.174 381.641 198.678C381.584 198.183 381.648 197.724 381.833 197.303C382.024 196.881 382.303 196.537 382.673 196.27C383.047 196.002 383.472 195.841 383.948 195.786C384.425 195.731 384.873 195.792 385.294 195.968C385.719 196.143 386.067 196.415 386.339 196.784C386.615 197.152 386.782 197.584 386.839 198.079C386.896 198.575 386.832 199.036 386.647 199.462C386.462 199.884 386.184 200.228 385.815 200.495C385.446 200.761 385.023 200.922 384.547 200.977ZM384.417 199.851C384.821 199.804 385.128 199.632 385.338 199.335C385.552 199.037 385.634 198.667 385.583 198.224C385.531 197.777 385.367 197.434 385.091 197.198C384.82 196.956 384.482 196.859 384.077 196.905C383.668 196.952 383.356 197.122 383.141 197.415C382.931 197.708 382.852 198.08 382.904 198.533C382.956 198.98 383.117 199.325 383.389 199.567C383.665 199.803 384.008 199.898 384.417 199.851ZM394.811 196.656L394.929 197.681L391.752 198.047L391.634 197.022L394.811 196.656ZM403.252 196.137C403.553 196.166 403.805 196.285 404.01 196.496C404.214 196.701 404.333 196.951 404.367 197.245C404.416 197.668 404.306 198.022 404.036 198.307C403.771 198.586 403.373 198.757 402.844 198.818L400.483 199.09L399.899 194.021L402.18 193.758C402.695 193.699 403.111 193.77 403.427 193.973C403.748 194.175 403.931 194.478 403.978 194.883C404.012 195.181 403.961 195.438 403.825 195.654C403.694 195.869 403.503 196.03 403.252 196.137ZM401.37 195.929L402.178 195.836C402.381 195.813 402.53 195.752 402.625 195.653C402.726 195.549 402.766 195.41 402.746 195.237C402.726 195.063 402.655 194.937 402.534 194.859C402.418 194.78 402.258 194.752 402.056 194.775L401.247 194.868L401.37 195.929ZM402.512 197.846C402.719 197.822 402.873 197.758 402.973 197.654C403.078 197.544 403.12 197.401 403.099 197.223C403.078 197.044 403.002 196.912 402.87 196.825C402.743 196.737 402.576 196.705 402.369 196.729L401.474 196.832L401.603 197.951L402.512 197.846ZM408.999 198.159C408.522 198.214 408.072 198.154 407.647 197.979C407.226 197.803 406.876 197.531 406.594 197.164C406.317 196.791 406.15 196.356 406.093 195.861C406.036 195.365 406.1 194.906 406.285 194.485C406.476 194.063 406.756 193.719 407.125 193.452C407.499 193.184 407.924 193.023 408.401 192.968C408.877 192.913 409.325 192.974 409.746 193.15C410.171 193.325 410.519 193.597 410.791 193.966C411.067 194.334 411.234 194.766 411.291 195.262C411.348 195.757 411.284 196.218 411.099 196.644C410.914 197.066 410.637 197.41 410.267 197.677C409.898 197.944 409.475 198.105 408.999 198.159ZM408.869 197.033C409.273 196.987 409.58 196.815 409.79 196.517C410.004 196.219 410.086 195.849 410.035 195.406C409.983 194.959 409.82 194.617 409.544 194.38C409.272 194.138 408.934 194.041 408.53 194.087C408.12 194.135 407.808 194.305 407.593 194.598C407.383 194.89 407.304 195.263 407.356 195.715C407.408 196.163 407.57 196.507 407.841 196.749C408.117 196.986 408.46 197.08 408.869 197.033ZM414.75 196.48L416.368 196.293L416.477 197.246L413.626 197.575L413.042 192.507L414.276 192.364L414.75 196.48ZM419.735 191.735C420.269 191.674 420.748 191.726 421.172 191.892C421.596 192.057 421.939 192.32 422.2 192.68C422.465 193.035 422.626 193.463 422.684 193.963C422.741 194.459 422.681 194.912 422.504 195.323C422.332 195.733 422.056 196.067 421.676 196.325C421.301 196.583 420.848 196.743 420.319 196.804L418.42 197.023L417.836 191.954L419.735 191.735ZM420.116 195.744C420.583 195.691 420.932 195.521 421.163 195.236C421.393 194.951 421.481 194.575 421.428 194.108C421.374 193.641 421.202 193.293 420.912 193.063C420.622 192.833 420.244 192.745 419.777 192.799L419.192 192.866L419.532 195.812L420.116 195.744Z" fill="#6E7191"/>
<g filter="url(#filter1_d)">
<rect x="40.0031" y="182.703" width="179.424" height="163.525" transform="rotate(-6.57368 40.0031 182.703)" fill="white"/>
</g>
<rect x="38.443" y="169.165" width="179.424" height="99.9322" transform="rotate(-6.57368 38.443 169.165)" fill="#3C2BFE"/>
<path d="M58.8447 227.171L69.6748 225.923C75.656 225.233 81.0636 229.523 81.7528 235.505V235.505C82.4421 241.486 78.1521 246.893 72.1708 247.583V247.583C66.1896 248.272 60.782 243.982 60.0928 238.001L58.8447 227.171Z" fill="#1201D6"/>
<path d="M90.4323 223.531L101.262 222.283C107.244 221.593 112.651 225.883 113.34 231.865V231.865C114.03 237.846 109.74 243.253 103.758 243.943V243.943C97.7771 244.632 92.3696 240.342 91.6803 234.361L90.4323 223.531Z" fill="#897FFE"/>
<path d="M67.7502 288.423L68.0628 291.136L66.4764 291.319L65.5891 283.619L68.5928 283.273C69.1709 283.206 69.6908 283.254 70.1523 283.415C70.6173 283.576 70.9905 283.838 71.2718 284.202C71.5527 284.563 71.7218 284.991 71.7791 285.489C71.866 286.243 71.6756 286.869 71.2077 287.366C70.743 287.858 70.0541 288.158 69.141 288.263L67.7502 288.423ZM67.6021 287.138L69.0193 286.975C69.4389 286.926 69.7465 286.791 69.9424 286.568C70.1417 286.345 70.2203 286.05 70.178 285.684C70.1345 285.307 69.9883 285.014 69.7394 284.807C69.4905 284.6 69.17 284.516 68.7779 284.554L67.3236 284.721L67.6021 287.138ZM76.539 285.813C76.3277 285.809 76.1428 285.816 75.9841 285.835C75.406 285.901 75.0495 286.14 74.9148 286.553L75.3463 290.296L73.818 290.473L73.1587 284.751L74.6023 284.585L74.7232 285.262C74.9694 284.701 75.364 284.39 75.9069 284.327C76.0761 284.308 76.2374 284.312 76.3907 284.341L76.539 285.813ZM79.8377 289.779L78.3041 289.956L77.6447 284.234L79.1783 284.057L79.8377 289.779ZM77.3842 282.764C77.3578 282.534 77.4119 282.337 77.5464 282.172C77.6845 282.006 77.8857 281.907 78.1501 281.877C78.411 281.847 78.6275 281.897 78.7997 282.027C78.9719 282.157 79.0712 282.337 79.0976 282.566C79.1244 282.799 79.067 282.998 78.9254 283.165C78.7874 283.331 78.5897 283.428 78.3323 283.458C78.0749 283.488 77.8584 283.438 77.6827 283.308C77.5105 283.178 77.411 282.996 77.3842 282.764ZM82.3265 283.694L82.4478 284.329C82.7959 283.785 83.3155 283.473 84.0065 283.394C84.7433 283.309 85.2827 283.541 85.6247 284.091C85.9596 283.463 86.4989 283.106 87.2428 283.021C87.8633 282.949 88.346 283.078 88.691 283.406C89.0357 283.73 89.2498 284.256 89.3335 284.982L89.7546 288.636L88.2211 288.813L87.8006 285.164C87.7632 284.84 87.6725 284.611 87.5285 284.477C87.3842 284.34 87.1516 284.29 86.8308 284.327C86.3724 284.38 86.0804 284.635 85.9545 285.093L86.4125 289.021L84.8843 289.197L84.4644 285.554C84.4262 285.222 84.3334 284.99 84.1859 284.857C84.0384 284.724 83.8077 284.676 83.494 284.712C83.0603 284.762 82.7673 284.978 82.6148 285.36L83.081 289.405L81.5528 289.581L80.8934 283.86L82.3265 283.694ZM94.7007 288.066C94.6144 287.937 94.5436 287.772 94.4883 287.571C94.1656 288.026 93.7082 288.288 93.1159 288.356C92.5554 288.42 92.0713 288.312 91.6638 288.03C91.2598 287.748 91.0293 287.36 90.9725 286.867C90.9026 286.26 91.0728 285.769 91.4832 285.393C91.897 285.017 92.5286 284.778 93.3778 284.677L94.0811 284.596L94.0433 284.268C94.0129 284.003 93.9197 283.8 93.764 283.657C93.6117 283.514 93.3893 283.459 93.0967 283.493C92.8393 283.522 92.6437 283.607 92.5099 283.748C92.3796 283.888 92.3268 284.066 92.3516 284.281L90.8233 284.457C90.7851 284.125 90.852 283.807 91.024 283.501C91.196 283.196 91.4597 282.942 91.8151 282.74C92.1701 282.535 92.5802 282.406 93.0456 282.352C93.7507 282.271 94.33 282.384 94.7835 282.693C95.2401 282.997 95.5054 283.471 95.5793 284.112L95.8651 286.592C95.9312 287.135 96.0543 287.537 96.2345 287.798L96.2449 287.888L94.7007 288.066ZM93.3144 287.149C93.54 287.123 93.7423 287.05 93.9213 286.929C94.0999 286.805 94.2253 286.653 94.2974 286.473L94.1841 285.489L93.613 285.555C92.848 285.643 92.4713 285.955 92.4828 286.489L92.4879 286.58C92.5099 286.77 92.5949 286.919 92.7431 287.027C92.8913 287.135 93.0817 287.176 93.3144 287.149ZM100.364 283.068C100.152 283.064 99.9674 283.071 99.8088 283.089C99.2306 283.156 98.8742 283.395 98.7395 283.807L99.1709 287.551L97.6427 287.727L96.9833 282.005L98.427 281.839L98.5479 282.516C98.7941 281.956 99.1886 281.644 99.7315 281.581C99.9007 281.562 100.062 281.567 100.215 281.595L100.364 283.068ZM103.662 287.033L102.129 287.21L101.469 281.488L103.003 281.312L103.662 287.033ZM101.209 280.018C101.182 279.789 101.237 279.592 101.371 279.426C101.509 279.26 101.71 279.162 101.975 279.131C102.236 279.101 102.452 279.151 102.624 279.282C102.797 279.412 102.896 279.591 102.922 279.821C102.949 280.053 102.892 280.253 102.75 280.419C102.612 280.585 102.414 280.683 102.157 280.713C101.9 280.742 101.683 280.692 101.507 280.562C101.335 280.432 101.236 280.251 101.209 280.018ZM104.804 283.949C104.738 283.382 104.789 282.863 104.957 282.394C105.124 281.925 105.398 281.545 105.779 281.254C106.164 280.964 106.627 280.787 107.17 280.724C107.942 280.635 108.599 280.799 109.14 281.215C109.684 281.631 110.031 282.241 110.181 283.046L110.237 283.436C110.338 284.314 110.174 285.047 109.745 285.636C109.316 286.221 108.689 286.561 107.864 286.656C107.039 286.751 106.35 286.563 105.795 286.091C105.244 285.619 104.916 284.928 104.812 284.018L104.804 283.949ZM106.345 283.884C106.407 284.427 106.557 284.831 106.795 285.097C107.033 285.359 107.342 285.468 107.722 285.424C108.093 285.382 108.365 285.207 108.541 284.901C108.716 284.592 108.768 284.125 108.696 283.501C108.634 282.969 108.483 282.568 108.241 282.299C107.999 282.031 107.69 281.918 107.313 281.962C106.939 282.005 106.667 282.184 106.496 282.501C106.325 282.813 106.274 283.274 106.345 283.884Z" fill="black"/>
<path d="M72.1652 302.777L72.6428 306.921C72.7062 307.496 72.579 307.988 72.2611 308.395C71.946 308.801 71.484 309.063 70.8752 309.178L70.6626 309.211C69.9956 309.288 69.4432 309.169 69.0054 308.855C68.5676 308.54 68.3095 308.068 68.2313 307.438L67.7527 303.285L68.5481 303.193L69.0238 307.321C69.0746 307.762 69.2356 308.091 69.5067 308.309C69.7775 308.524 70.1375 308.605 70.5869 308.554C71.0418 308.501 71.3753 308.34 71.5873 308.069C71.8022 307.798 71.8842 307.443 71.8333 307.002L71.3572 302.87L72.1652 302.777ZM74.8683 302.94L74.9947 304.037L75.8404 303.94L75.9094 304.538L75.0637 304.636L75.3874 307.445C75.4083 307.626 75.4618 307.759 75.5477 307.842C75.6334 307.923 75.7669 307.952 75.9483 307.932C76.0376 307.921 76.1585 307.89 76.3109 307.839L76.3833 308.467C76.186 308.546 75.991 308.597 75.7985 308.619C75.4524 308.659 75.1794 308.584 74.9794 308.395C74.7795 308.206 74.6573 307.919 74.6129 307.534L74.2892 304.725L73.4645 304.82L73.3955 304.221L74.2202 304.126L74.0938 303.029L74.8683 302.94ZM78.5635 308.216L77.789 308.305L77.267 303.775L78.0415 303.686L78.5635 308.216ZM77.0658 302.581C77.0513 302.455 77.0768 302.345 77.1422 302.25C77.2103 302.154 77.3198 302.098 77.4705 302.08C77.6212 302.063 77.7406 302.093 77.8287 302.171C77.9169 302.248 77.9681 302.35 77.9826 302.475C77.9971 302.601 77.9701 302.71 77.9016 302.803C77.8331 302.895 77.7235 302.95 77.5728 302.968C77.4221 302.985 77.3028 302.957 77.215 302.882C77.13 302.807 77.0803 302.706 77.0658 302.581ZM81.0996 307.923L80.3251 308.013L79.5841 301.582L80.3586 301.493L81.0996 307.923ZM83.6357 307.631L82.8612 307.72L82.3392 303.191L83.1137 303.101L83.6357 307.631ZM82.138 301.996C82.1235 301.871 82.1489 301.76 82.2143 301.665C82.2825 301.57 82.3919 301.513 82.5427 301.496C82.6934 301.478 82.8128 301.509 82.9009 301.586C82.989 301.664 83.0403 301.765 83.0548 301.891C83.0693 302.016 83.0422 302.125 82.9737 302.218C82.9053 302.311 82.7956 302.366 82.6449 302.383C82.4942 302.401 82.375 302.372 82.2872 302.297C82.2022 302.222 82.1524 302.122 82.138 301.996ZM85.9859 306.72L88.6359 306.414L88.7087 307.046L85.1126 307.461L85.047 306.892L87.1637 303.284L84.7021 303.567L84.6283 302.927L88.0612 302.531L88.1244 303.08L85.9859 306.72ZM92.8315 306.571C92.7765 306.487 92.7219 306.332 92.6676 306.107C92.3507 306.522 91.9424 306.759 91.4429 306.816C90.9963 306.868 90.6148 306.784 90.2984 306.566C89.9845 306.345 89.8052 306.041 89.7604 305.653C89.7061 305.181 89.8426 304.795 90.1699 304.494C90.4997 304.19 90.9898 304.001 91.64 303.926L92.3936 303.839L92.3526 303.483C92.3214 303.212 92.2157 303.007 92.0355 302.866C91.855 302.723 91.607 302.67 91.2916 302.706C91.0153 302.738 90.7917 302.834 90.6208 302.996C90.4499 303.157 90.3759 303.336 90.3987 303.534L89.62 303.624C89.594 303.398 89.6484 303.171 89.7834 302.944C89.9208 302.713 90.1192 302.52 90.3786 302.366C90.6407 302.211 90.9365 302.115 91.2658 302.077C91.7877 302.017 92.2117 302.101 92.5378 302.329C92.8635 302.555 93.0583 302.896 93.1223 303.352L93.3625 305.437C93.4104 305.853 93.5016 306.177 93.6359 306.411L93.6436 306.478L92.8315 306.571ZM91.4782 306.129C91.721 306.101 91.9441 306.012 92.1473 305.861C92.3505 305.711 92.4894 305.529 92.5639 305.317L92.4568 304.387L91.8498 304.457C90.9008 304.567 90.4584 304.899 90.5224 305.455C90.5504 305.697 90.6532 305.878 90.8308 305.996C91.0084 306.114 91.2243 306.158 91.4782 306.129ZM94.6961 304.023C94.6161 303.328 94.7164 302.751 94.9972 302.292C95.2776 301.83 95.6844 301.568 96.2174 301.506C96.7477 301.445 97.1887 301.578 97.5403 301.905L97.2682 299.544L98.0427 299.455L98.7837 305.885L98.072 305.967L97.9783 305.486C97.7123 305.901 97.303 306.141 96.7504 306.205C96.2257 306.265 95.7725 306.1 95.3908 305.708C95.012 305.316 94.7827 304.774 94.7029 304.082L94.6961 304.023ZM95.4808 304.022C95.5399 304.536 95.6923 304.925 95.9379 305.191C96.1834 305.457 96.4932 305.568 96.8672 305.525C97.3584 305.469 97.6916 305.207 97.8669 304.74L97.6271 302.659C97.3462 302.259 96.9658 302.086 96.4858 302.142C96.1062 302.185 95.8272 302.366 95.6489 302.683C95.4705 303.001 95.4145 303.447 95.4808 304.022ZM99.9697 303.411C99.9185 302.968 99.959 302.559 100.091 302.184C100.226 301.809 100.438 301.508 100.725 301.28C101.016 301.051 101.36 300.914 101.759 300.868C102.376 300.797 102.899 300.953 103.328 301.336C103.759 301.719 104.016 302.265 104.098 302.974L104.104 303.028C104.155 303.469 104.115 303.875 103.986 304.247C103.858 304.615 103.648 304.915 103.355 305.147C103.065 305.378 102.717 305.517 102.309 305.564C101.695 305.635 101.172 305.479 100.741 305.096C100.312 304.712 100.057 304.169 99.9759 303.466L99.9697 303.411ZM100.759 303.414C100.817 303.916 100.979 304.306 101.246 304.584C101.515 304.861 101.845 304.977 102.236 304.932C102.63 304.887 102.925 304.697 103.121 304.363C103.317 304.027 103.383 303.581 103.319 303.025C103.262 302.529 103.097 302.14 102.824 301.861C102.554 301.578 102.223 301.459 101.833 301.504C101.45 301.548 101.159 301.736 100.96 302.067C100.761 302.398 100.694 302.847 100.759 303.414ZM111.931 302.126C112.01 302.816 111.916 303.389 111.65 303.847C111.383 304.305 110.98 304.565 110.441 304.627C109.892 304.69 109.439 304.566 109.083 304.253L109.335 306.434L108.56 306.523L107.838 300.252L108.545 300.171L108.641 300.669C108.911 300.242 109.327 299.996 109.888 299.931C110.432 299.868 110.885 300.024 111.248 300.398C111.613 300.772 111.838 301.324 111.923 302.055L111.931 302.126ZM111.146 302.128C111.087 301.617 110.932 301.226 110.68 300.955C110.428 300.685 110.113 300.571 109.733 300.615C109.264 300.669 108.937 300.917 108.75 301.36L108.999 303.525C109.279 303.911 109.657 304.077 110.134 304.022C110.505 303.979 110.783 303.798 110.967 303.48C111.153 303.159 111.213 302.708 111.146 302.128ZM116.422 303.853C116.367 303.769 116.312 303.614 116.258 303.388C115.941 303.804 115.533 304.04 115.033 304.098C114.587 304.149 114.205 304.066 113.889 303.848C113.575 303.627 113.395 303.322 113.351 302.934C113.296 302.462 113.433 302.076 113.76 301.776C114.09 301.472 114.58 301.282 115.23 301.207L115.984 301.121L115.943 300.765C115.912 300.494 115.806 300.288 115.626 300.148C115.445 300.005 115.197 299.951 114.882 299.988C114.606 300.02 114.382 300.116 114.211 300.277C114.04 300.438 113.966 300.618 113.989 300.816L113.21 300.906C113.184 300.68 113.239 300.453 113.374 300.225C113.511 299.994 113.709 299.802 113.969 299.647C114.231 299.493 114.527 299.397 114.856 299.359C115.378 299.298 115.802 299.383 116.128 299.611C116.454 299.836 116.649 300.177 116.712 300.634L116.953 302.718C117.001 303.134 117.092 303.459 117.226 303.692L117.234 303.759L116.422 303.853ZM115.068 303.411C115.311 303.383 115.534 303.293 115.737 303.143C115.941 302.992 116.08 302.811 116.154 302.598L116.047 301.669L115.44 301.739C114.491 301.848 114.049 302.181 114.113 302.736C114.141 302.979 114.243 303.159 114.421 303.277C114.599 303.396 114.814 303.44 115.068 303.411ZM120.488 299.499C120.368 299.493 120.24 299.497 120.103 299.513C119.595 299.572 119.276 299.828 119.144 300.281L119.515 303.496L118.74 303.586L118.218 299.056L118.972 298.969L119.044 299.491C119.252 299.057 119.589 298.813 120.055 298.76C120.205 298.742 120.322 298.748 120.405 298.779L120.488 299.499ZM124.726 302.896C124.671 302.812 124.616 302.657 124.562 302.431C124.245 302.847 123.837 303.083 123.337 303.141C122.891 303.192 122.509 303.109 122.193 302.891C121.879 302.67 121.699 302.365 121.655 301.977C121.6 301.506 121.737 301.119 122.064 300.819C122.394 300.515 122.884 300.325 123.534 300.25L124.288 300.164L124.247 299.808C124.216 299.537 124.11 299.331 123.93 299.191C123.749 299.048 123.501 298.994 123.186 299.031C122.91 299.063 122.686 299.159 122.515 299.32C122.344 299.481 122.27 299.661 122.293 299.859L121.514 299.949C121.488 299.723 121.543 299.496 121.678 299.268C121.815 299.037 122.013 298.845 122.273 298.691C122.535 298.536 122.831 298.44 123.16 298.402C123.682 298.342 124.106 298.426 124.432 298.654C124.758 298.879 124.953 299.22 125.017 299.677L125.257 301.761C125.305 302.177 125.396 302.502 125.53 302.735L125.538 302.802L124.726 302.896ZM123.373 302.454C123.615 302.426 123.838 302.336 124.042 302.186C124.245 302.035 124.384 301.854 124.458 301.641L124.351 300.712L123.744 300.782C122.795 300.891 122.353 301.224 122.417 301.779C122.445 302.022 122.547 302.202 122.725 302.32C122.903 302.439 123.119 302.483 123.373 302.454ZM131.511 302.199C130.897 302.27 130.375 302.126 129.943 301.769C129.511 301.408 129.257 300.89 129.179 300.215L129.162 300.073C129.111 299.623 129.15 299.213 129.279 298.842C129.412 298.467 129.62 298.163 129.904 297.93C130.19 297.693 130.514 297.554 130.874 297.513C131.463 297.445 131.943 297.586 132.314 297.936C132.685 298.287 132.913 298.823 132.996 299.546L133.033 299.868L129.964 300.222C130.027 300.667 130.198 301.014 130.479 301.262C130.761 301.506 131.095 301.606 131.48 301.562C131.754 301.53 131.979 301.448 132.156 301.314C132.333 301.181 132.482 301.014 132.603 300.813L133.119 301.127C132.806 301.754 132.271 302.111 131.511 302.199ZM130.947 298.149C130.635 298.185 130.385 298.33 130.2 298.583C130.014 298.834 129.919 299.167 129.916 299.583L132.185 299.321L132.178 299.263C132.111 298.872 131.97 298.58 131.755 298.387C131.54 298.191 131.271 298.112 130.947 298.149ZM135.461 301.659L134.687 301.748L133.946 295.318L134.72 295.228L135.461 301.659ZM141.488 300.409C141.764 300.377 141.996 300.265 142.183 300.074C142.37 299.883 142.46 299.66 142.454 299.406L143.186 299.322C143.202 299.583 143.141 299.84 143.004 300.094C142.866 300.347 142.667 300.56 142.407 300.731C142.15 300.902 141.867 301.005 141.56 301.041C140.944 301.112 140.429 300.963 140.016 300.595C139.605 300.224 139.359 299.681 139.277 298.967L139.262 298.837C139.211 298.396 139.247 297.994 139.369 297.632C139.491 297.27 139.692 296.977 139.972 296.753C140.254 296.528 140.602 296.392 141.015 296.344C141.523 296.286 141.962 296.389 142.332 296.655C142.705 296.92 142.93 297.294 143.008 297.777L142.276 297.862C142.22 297.571 142.08 297.344 141.858 297.18C141.638 297.013 141.381 296.947 141.088 296.98C140.695 297.026 140.405 297.203 140.221 297.513C140.038 297.82 139.978 298.241 140.04 298.777L140.056 298.923C140.117 299.445 140.27 299.835 140.518 300.092C140.765 300.349 141.088 300.455 141.488 300.409ZM144.202 298.314C144.151 297.87 144.191 297.461 144.324 297.087C144.459 296.712 144.67 296.411 144.957 296.182C145.248 295.954 145.593 295.817 145.992 295.771C146.608 295.699 147.131 295.856 147.56 296.239C147.992 296.622 148.248 297.168 148.33 297.877L148.336 297.931C148.387 298.372 148.348 298.778 148.218 299.149C148.091 299.518 147.881 299.818 147.588 300.049C147.298 300.281 146.949 300.42 146.541 300.467C145.927 300.538 145.405 300.381 144.973 299.998C144.544 299.615 144.289 299.072 144.208 298.369L144.202 298.314ZM144.991 298.317C145.049 298.819 145.211 299.209 145.478 299.486C145.748 299.764 146.078 299.88 146.468 299.835C146.862 299.789 147.157 299.6 147.353 299.266C147.549 298.93 147.615 298.484 147.551 297.928C147.494 297.431 147.329 297.043 147.056 296.764C146.786 296.481 146.456 296.362 146.065 296.407C145.683 296.451 145.392 296.639 145.192 296.97C144.993 297.301 144.926 297.75 144.991 298.317ZM150.855 299.885L150.081 299.974L149.34 293.544L150.114 293.454L150.855 299.885ZM152.079 297.406C152.028 296.963 152.068 296.554 152.201 296.179C152.336 295.804 152.547 295.503 152.834 295.275C153.125 295.046 153.47 294.909 153.869 294.863C154.486 294.792 155.008 294.948 155.437 295.331C155.869 295.714 156.125 296.26 156.207 296.969L156.213 297.023C156.264 297.464 156.225 297.87 156.095 298.242C155.968 298.61 155.758 298.91 155.465 299.142C155.175 299.373 154.826 299.512 154.418 299.559C153.804 299.63 153.282 299.474 152.85 299.091C152.421 298.707 152.166 298.164 152.085 297.461L152.079 297.406ZM152.868 297.409C152.926 297.911 153.088 298.301 153.355 298.579C153.625 298.856 153.955 298.972 154.346 298.927C154.739 298.882 155.034 298.692 155.23 298.358C155.426 298.022 155.492 297.576 155.428 297.02C155.371 296.524 155.206 296.135 154.933 295.856C154.663 295.573 154.333 295.454 153.942 295.499C153.56 295.543 153.269 295.731 153.069 296.062C152.87 296.393 152.803 296.842 152.868 297.409ZM159.639 294.987C159.519 294.981 159.391 294.986 159.254 295.002C158.746 295.06 158.426 295.316 158.295 295.77L158.665 298.985L157.891 299.074L157.369 294.544L158.123 294.457L158.195 294.979C158.403 294.545 158.739 294.302 159.206 294.248C159.356 294.23 159.473 294.237 159.556 294.267L159.639 294.987ZM163.372 296.109C163.292 295.414 163.392 294.837 163.673 294.378C163.953 293.916 164.36 293.654 164.893 293.592C165.423 293.531 165.864 293.664 166.216 293.991L165.944 291.63L166.718 291.541L167.459 297.971L166.748 298.053L166.654 297.572C166.388 297.987 165.979 298.227 165.426 298.291C164.901 298.351 164.448 298.185 164.066 297.794C163.688 297.402 163.458 296.86 163.379 296.168L163.372 296.109ZM164.156 296.108C164.216 296.621 164.368 297.011 164.614 297.277C164.859 297.543 165.169 297.654 165.543 297.611C166.034 297.554 166.367 297.293 166.543 296.826L166.303 294.745C166.022 294.345 165.641 294.172 165.161 294.227C164.782 294.271 164.503 294.452 164.325 294.769C164.146 295.087 164.09 295.533 164.156 296.108ZM171.006 297.648C170.392 297.718 169.869 297.575 169.437 297.217C169.006 296.857 168.751 296.339 168.673 295.664L168.657 295.522C168.605 295.072 168.644 294.662 168.773 294.291C168.906 293.916 169.114 293.612 169.398 293.379C169.685 293.142 170.008 293.003 170.368 292.961C170.957 292.894 171.437 293.035 171.808 293.385C172.179 293.735 172.407 294.272 172.49 294.995L172.527 295.317L169.459 295.671C169.521 296.116 169.693 296.463 169.973 296.71C170.256 296.955 170.589 297.055 170.975 297.011C171.248 296.979 171.473 296.897 171.65 296.763C171.827 296.63 171.976 296.462 172.097 296.262L172.613 296.576C172.3 297.203 171.765 297.56 171.006 297.648ZM170.441 293.598C170.129 293.634 169.88 293.778 169.694 294.032C169.508 294.282 169.413 294.616 169.41 295.032L171.679 294.77L171.673 294.712C171.605 294.321 171.464 294.029 171.249 293.836C171.034 293.64 170.765 293.561 170.441 293.598ZM177.533 296.81L176.759 296.9L176.018 290.469L176.792 290.38L177.533 296.81ZM182.024 296.293C181.97 296.209 181.915 296.054 181.861 295.828C181.544 296.244 181.135 296.48 180.636 296.538C180.189 296.589 179.808 296.506 179.491 296.288C179.177 296.067 178.998 295.762 178.953 295.374C178.899 294.903 179.036 294.516 179.363 294.216C179.693 293.912 180.183 293.722 180.833 293.647L181.587 293.561L181.546 293.205C181.514 292.934 181.409 292.728 181.228 292.588C181.048 292.445 180.8 292.391 180.485 292.428C180.208 292.46 179.985 292.556 179.814 292.717C179.643 292.878 179.569 293.058 179.592 293.256L178.813 293.346C178.787 293.12 178.841 292.893 178.976 292.665C179.114 292.434 179.312 292.242 179.572 292.088C179.834 291.933 180.129 291.837 180.459 291.799C180.981 291.738 181.405 291.823 181.731 292.051C182.057 292.276 182.251 292.617 182.315 293.074L182.556 295.158C182.603 295.574 182.695 295.899 182.829 296.132L182.837 296.199L182.024 296.293ZM180.671 295.851C180.914 295.823 181.137 295.733 181.34 295.583C181.544 295.432 181.682 295.251 181.757 295.038L181.65 294.109L181.043 294.179C180.094 294.288 179.651 294.621 179.715 295.176C179.743 295.419 179.846 295.599 180.024 295.717C180.201 295.836 180.417 295.88 180.671 295.851ZM70.4932 320.662L70.5721 321.162C70.8592 320.733 71.2846 320.486 71.8484 320.421C72.4819 320.348 72.9411 320.541 73.2259 321C73.3515 320.765 73.5266 320.567 73.7512 320.405C73.9786 320.243 74.2569 320.143 74.5863 320.105C75.5799 319.991 76.1456 320.458 76.2836 321.509L76.6334 324.544L75.8589 324.633L75.5145 321.644C75.4771 321.32 75.3754 321.087 75.2091 320.945C75.0425 320.801 74.7848 320.748 74.436 320.788C74.1485 320.822 73.9198 320.936 73.75 321.13C73.5798 321.323 73.4961 321.566 73.4989 321.859L73.8453 324.865L73.0666 324.955L72.7245 321.987C72.6486 321.328 72.2883 321.036 71.6436 321.11C71.1357 321.169 70.8131 321.425 70.676 321.879L71.0571 325.186L70.2826 325.276L69.7606 320.746L70.4932 320.662ZM81.0534 324.035C80.9984 323.95 80.9438 323.795 80.8895 323.57C80.5726 323.985 80.1643 324.222 79.6648 324.279C79.2182 324.331 78.8367 324.248 78.5203 324.029C78.2064 323.808 78.027 323.504 77.9823 323.116C77.928 322.644 78.0645 322.258 78.3918 321.957C78.7216 321.653 79.2116 321.464 79.8619 321.389L80.6155 321.302L80.5745 320.946C80.5433 320.676 80.4376 320.47 80.2574 320.33C80.0768 320.186 79.8289 320.133 79.5135 320.169C79.2372 320.201 79.0136 320.298 78.8427 320.459C78.6718 320.62 78.5977 320.799 78.6206 320.998L77.8419 321.087C77.8159 320.861 77.8703 320.634 78.0053 320.407C78.1427 320.176 78.3411 319.983 78.6005 319.829C78.8626 319.675 79.1584 319.578 79.4877 319.54C80.0096 319.48 80.4336 319.564 80.7596 319.792C81.0854 320.018 81.2802 320.359 81.3441 320.815L81.5844 322.9C81.6323 323.316 81.7235 323.641 81.8578 323.874L81.8655 323.941L81.0534 324.035ZM79.7001 323.592C79.9429 323.564 80.1659 323.475 80.3692 323.324C80.5724 323.174 80.7113 322.992 80.7858 322.78L80.6787 321.851L80.0717 321.921C79.1227 322.03 78.6803 322.362 78.7443 322.918C78.7723 323.161 78.8751 323.341 79.0527 323.459C79.2303 323.577 79.4461 323.622 79.7001 323.592ZM85.1193 319.68C84.9999 319.674 84.8718 319.679 84.735 319.695C84.227 319.753 83.9073 320.009 83.7757 320.463L84.1462 323.678L83.3718 323.767L82.8498 319.238L83.6033 319.151L83.6762 319.673C83.8835 319.239 84.2202 318.995 84.6863 318.941C84.837 318.924 84.9537 318.93 85.0364 318.96L85.1193 319.68ZM88.3984 322.632C88.6747 322.601 88.9064 322.489 89.0937 322.298C89.2809 322.107 89.3712 321.884 89.3646 321.63L90.0972 321.546C90.1132 321.807 90.0523 322.064 89.9147 322.318C89.777 322.571 89.5781 322.783 89.3179 322.955C89.0604 323.126 88.7782 323.229 88.4712 323.265C87.8544 323.336 87.3396 323.187 86.9267 322.819C86.5162 322.448 86.2699 321.905 86.1875 321.19L86.1726 321.061C86.1218 320.62 86.1575 320.218 86.2798 319.856C86.4021 319.494 86.6031 319.201 86.8826 318.977C87.165 318.752 87.5127 318.615 87.9257 318.568C88.4337 318.509 88.8726 318.613 89.2426 318.879C89.6154 319.144 89.8409 319.518 89.9192 320.001L89.1866 320.085C89.1305 319.795 88.9912 319.568 88.7687 319.404C88.5486 319.237 88.2921 319.17 87.9991 319.204C87.6055 319.25 87.3163 319.427 87.1314 319.737C86.949 320.044 86.8887 320.465 86.9504 321.001L86.9673 321.147C87.0275 321.669 87.1812 322.059 87.4286 322.316C87.676 322.573 87.9992 322.678 88.3984 322.632ZM94.3803 322.499C94.3253 322.415 94.2707 322.26 94.2164 322.034C93.8995 322.45 93.4912 322.686 92.9916 322.744C92.5451 322.795 92.1636 322.712 91.8472 322.494C91.5333 322.273 91.3539 321.968 91.3092 321.58C91.2549 321.108 91.3914 320.722 91.7187 320.421C92.0485 320.118 92.5385 319.928 93.1888 319.853L93.9424 319.766L93.9014 319.411C93.8702 319.14 93.7645 318.934 93.5843 318.794C93.4037 318.651 93.1558 318.597 92.8404 318.634C92.5641 318.665 92.3405 318.762 92.1696 318.923C91.9987 319.084 91.9246 319.264 91.9475 319.462L91.1688 319.552C91.1427 319.326 91.1972 319.099 91.3322 318.871C91.4696 318.64 91.668 318.448 91.9273 318.293C92.1895 318.139 92.4852 318.042 92.8146 318.005C93.3365 317.944 93.7605 318.028 94.0865 318.257C94.4123 318.482 94.6071 318.823 94.671 319.28L94.9113 321.364C94.9592 321.78 95.0503 322.105 95.1847 322.338L95.1924 322.405L94.3803 322.499ZM93.027 322.057C93.2698 322.029 93.4928 321.939 93.6961 321.789C93.8993 321.638 94.0381 321.456 94.1127 321.244L94.0056 320.315L93.3985 320.385C92.4496 320.494 92.0072 320.827 92.0712 321.382C92.0991 321.625 92.202 321.805 92.3796 321.923C92.5572 322.041 92.773 322.086 93.027 322.057ZM102.848 319.279C102.927 319.968 102.834 320.542 102.567 321C102.3 321.457 101.897 321.717 101.359 321.779C100.809 321.843 100.356 321.718 100 321.406L100.252 323.587L99.4773 323.676L98.7546 317.405L99.4621 317.323L99.5577 317.821C99.828 317.394 100.244 317.148 100.805 317.084C101.349 317.021 101.802 317.177 102.165 317.551C102.53 317.924 102.755 318.477 102.84 319.208L102.848 319.279ZM102.063 319.28C102.004 318.77 101.849 318.379 101.597 318.108C101.345 317.837 101.03 317.724 100.65 317.768C100.181 317.822 99.8536 318.07 99.6671 318.513L99.9165 320.677C100.196 321.064 100.574 321.229 101.051 321.174C101.422 321.132 101.7 320.951 101.884 320.633C102.07 320.312 102.13 319.861 102.063 319.28ZM106.29 317.241C106.17 317.235 106.042 317.239 105.905 317.255C105.398 317.314 105.078 317.57 104.946 318.023L105.317 321.238L104.542 321.328L104.02 316.798L104.774 316.711L104.847 317.233C105.054 316.799 105.391 316.555 105.857 316.502C106.007 316.484 106.124 316.491 106.207 316.521L106.29 317.241ZM108.74 320.844L107.966 320.933L107.444 316.403L108.218 316.314L108.74 320.844ZM107.243 315.209C107.228 315.084 107.254 314.973 107.319 314.878C107.387 314.783 107.497 314.726 107.647 314.709C107.798 314.691 107.917 314.721 108.006 314.799C108.094 314.876 108.145 314.978 108.159 315.104C108.174 315.229 108.147 315.338 108.078 315.431C108.01 315.524 107.9 315.579 107.75 315.596C107.599 315.614 107.48 315.585 107.392 315.51C107.307 315.435 107.257 315.335 107.243 315.209ZM110.646 316.035L110.736 316.601C111.032 316.126 111.459 315.856 112.017 315.792C112.975 315.681 113.52 316.166 113.653 317.245L113.998 320.238L113.223 320.327L112.878 317.33C112.837 317.004 112.734 316.771 112.568 316.632C112.405 316.492 112.169 316.44 111.859 316.476C111.608 316.505 111.395 316.597 111.22 316.753C111.046 316.909 110.918 317.102 110.837 317.332L111.209 320.559L110.435 320.649L109.913 316.119L110.646 316.035ZM117.371 319.294C117.647 319.262 117.879 319.15 118.066 318.959C118.253 318.768 118.343 318.545 118.337 318.292L119.069 318.207C119.085 318.468 119.024 318.726 118.887 318.979C118.749 319.232 118.55 319.445 118.29 319.616C118.033 319.787 117.75 319.89 117.443 319.926C116.827 319.997 116.312 319.848 115.899 319.48C115.488 319.109 115.242 318.566 115.16 317.852L115.145 317.722C115.094 317.281 115.13 316.879 115.252 316.518C115.374 316.156 115.575 315.862 115.855 315.638C116.137 315.413 116.485 315.277 116.898 315.229C117.406 315.171 117.845 315.274 118.215 315.54C118.588 315.805 118.813 316.179 118.891 316.662L118.159 316.747C118.103 316.456 117.963 316.229 117.741 316.065C117.521 315.898 117.264 315.832 116.971 315.866C116.578 315.911 116.288 316.088 116.104 316.398C115.921 316.705 115.861 317.126 115.923 317.662L115.939 317.808C116 318.33 116.153 318.72 116.401 318.977C116.648 319.234 116.971 319.34 117.371 319.294ZM121.397 319.385L120.623 319.475L120.101 314.945L120.875 314.856L121.397 319.385ZM119.9 313.751C119.885 313.625 119.911 313.515 119.976 313.419C120.044 313.324 120.154 313.267 120.304 313.25C120.455 313.233 120.574 313.263 120.663 313.34C120.751 313.418 120.802 313.519 120.816 313.645C120.831 313.771 120.804 313.88 120.735 313.972C120.667 314.065 120.557 314.12 120.407 314.138C120.256 314.155 120.137 314.126 120.049 314.052C119.964 313.977 119.914 313.876 119.9 313.751ZM126.663 316.535C126.743 317.224 126.649 317.797 126.382 318.255C126.115 318.713 125.713 318.973 125.174 319.035C124.624 319.098 124.171 318.974 123.816 318.661L124.067 320.842L123.293 320.932L122.57 314.66L123.277 314.579L123.373 315.077C123.643 314.65 124.059 314.404 124.62 314.339C125.164 314.277 125.618 314.432 125.98 314.806C126.346 315.18 126.571 315.732 126.655 316.463L126.663 316.535ZM125.879 316.536C125.82 316.025 125.664 315.634 125.413 315.364C125.161 315.093 124.845 314.979 124.466 315.023C123.997 315.077 123.669 315.326 123.482 315.768L123.732 317.933C124.011 318.319 124.389 318.485 124.867 318.43C125.238 318.387 125.515 318.207 125.699 317.888C125.886 317.567 125.945 317.116 125.879 316.536ZM131.154 318.261C131.099 318.177 131.045 318.022 130.99 317.796C130.673 318.212 130.265 318.448 129.766 318.506C129.319 318.557 128.937 318.474 128.621 318.256C128.307 318.035 128.128 317.73 128.083 317.342C128.029 316.871 128.165 316.484 128.493 316.184C128.822 315.88 129.312 315.69 129.963 315.616L130.716 315.529L130.675 315.173C130.644 314.902 130.538 314.697 130.358 314.556C130.178 314.413 129.93 314.359 129.614 314.396C129.338 314.428 129.114 314.524 128.943 314.685C128.773 314.846 128.699 315.026 128.721 315.224L127.943 315.314C127.917 315.088 127.971 314.861 128.106 314.633C128.243 314.402 128.442 314.21 128.701 314.056C128.963 313.901 129.259 313.805 129.588 313.767C130.11 313.707 130.534 313.791 130.86 314.019C131.186 314.244 131.381 314.585 131.445 315.042L131.685 317.127C131.733 317.542 131.824 317.867 131.959 318.1L131.966 318.167L131.154 318.261ZM129.801 317.819C130.044 317.791 130.267 317.702 130.47 317.551C130.673 317.4 130.812 317.219 130.887 317.007L130.779 316.077L130.172 316.147C129.223 316.256 128.781 316.589 128.845 317.144C128.873 317.387 128.976 317.567 129.153 317.686C129.331 317.804 129.547 317.848 129.801 317.819ZM134.314 317.897L133.539 317.986L132.798 311.556L133.573 311.467L134.314 317.897Z" fill="#66738F"/>
<g filter="url(#filter2_d)">
<g filter="url(#filter3_d)">
<rect x="237.407" y="262.898" width="195.023" height="146.267" transform="rotate(-6.57368 237.407 262.898)" fill="white"/>
</g>
<path d="M312.747 292.035C317.31 291.509 320.583 287.384 320.057 282.82C319.532 278.257 315.406 274.983 310.842 275.509C306.279 276.035 303.005 280.161 303.531 284.725C304.057 289.288 308.183 292.561 312.747 292.035Z" stroke="#E4DAFF" stroke-width="3.6339"/>
<ellipse cx="311.794" cy="283.772" rx="6.50076" ry="6.50076" transform="rotate(-6.57368 311.794 283.772)" fill="#3C2BFE"/>
<path d="M314.03 281.879L311.119 285.895L309.415 284.418" stroke="#F7F7FC" stroke-width="0.908475" stroke-linecap="round" stroke-linejoin="round"/>
<circle cx="272.239" cy="288.331" r="6.50076" transform="rotate(-6.57368 272.239 288.331)" fill="#D9DBE9"/>
<rect x="398.314" y="303.152" width="13.6271" height="13.6271" rx="6.81356" transform="rotate(-6.57368 398.314 303.152)" stroke="#3C2BFE" stroke-width="0.908475"/>
<rect x="364.019" y="307.104" width="13.6271" height="13.6271" rx="6.81356" transform="rotate(-6.57368 364.019 307.104)" stroke="#3C2BFE" stroke-width="0.908475"/>
<path d="M369.711 312.85C369.461 312.879 369.283 313.104 369.311 313.353C369.34 313.602 369.565 313.781 369.815 313.752L369.711 312.85ZM373.425 313.336C373.674 313.308 373.853 313.082 373.824 312.833C373.795 312.584 373.57 312.405 373.321 312.434L373.425 313.336ZM369.815 313.752L373.425 313.336L373.321 312.434L369.711 312.85L369.815 313.752Z" fill="#3C2BFE"/>
<path d="M406.106 307.284C406.077 307.035 405.852 306.856 405.603 306.885C405.354 306.914 405.175 307.139 405.203 307.388L406.106 307.284ZM405.619 310.998C405.648 311.247 405.874 311.426 406.123 311.397C406.372 311.369 406.551 311.143 406.522 310.894L405.619 310.998ZM405.203 307.388L405.619 310.998L406.522 310.894L406.106 307.284L405.203 307.388Z" fill="#3C2BFE"/>
<path d="M404.006 308.898C403.757 308.927 403.578 309.152 403.607 309.401C403.635 309.65 403.861 309.829 404.11 309.8L404.006 308.898ZM407.72 309.384C407.969 309.356 408.148 309.13 408.119 308.881C408.09 308.632 407.865 308.453 407.616 308.482L407.72 309.384ZM404.11 309.8L407.72 309.384L407.616 308.482L404.006 308.898L404.11 309.8Z" fill="#3C2BFE"/>
<path d="M386.783 309.516L386.676 308.585L388.416 308.384L389.022 313.648L387.982 313.768L387.483 309.436L386.783 309.516Z" fill="#14142B"/>
<circle cx="403.418" cy="273.214" r="6.50076" transform="rotate(-6.57368 403.418 273.214)" fill="#3C2BFE"/>
<ellipse cx="403.418" cy="273.214" rx="3.25038" ry="3.25038" transform="rotate(-6.57368 403.418 273.214)" fill="#F7F7FC"/>
<rect x="268.079" y="365.802" width="157.237" height="9.54799" rx="4.774" transform="rotate(-6.57368 268.079 365.802)" fill="#D9DBE9"/>
<rect x="268.079" y="365.802" width="82.0122" height="9.54799" rx="4.774" transform="rotate(-6.57368 268.079 365.802)" fill="#3C2BFE"/>
<rect opacity="0.8" x="338.033" y="353.861" width="18.1695" height="16.6354" rx="8.31771" transform="rotate(-6.57368 338.033 353.861)" fill="#F7F7FC" stroke="#E4DAFF" stroke-width="3.6339"/>
<rect x="340.495" y="355.385" width="13.6271" height="13.6271" rx="6.81356" transform="rotate(-6.57368 340.495 355.385)" fill="#F7F7FC" stroke="#3C2BFE" stroke-width="0.908475"/>
<rect x="302.32" y="315.129" width="26.003" height="13.0015" rx="6.50076" transform="rotate(-6.57368 302.32 315.129)" fill="#3C2BFE"/>
<rect x="315.74" y="314.04" width="12.093" height="12.093" rx="6.04652" transform="rotate(-6.57368 315.74 314.04)" fill="#F7F7FC" stroke="#3C2BFE" stroke-width="0.908475"/>
<rect x="261.411" y="319.843" width="29.0712" height="13.0015" rx="6.50076" transform="rotate(-6.57368 261.411 319.843)" fill="#D9DBE9"/>
<rect x="263.268" y="320.087" width="12.093" height="12.093" rx="6.04652" transform="rotate(-6.57368 263.268 320.087)" fill="#FCFCFC" stroke="#D9DBE9" stroke-width="0.908475"/>
<circle cx="366.688" cy="277.446" r="6.50076" transform="rotate(-6.57368 366.688 277.446)" fill="#D9DBE9"/>
</g>
<defs>
<filter id="filter0_d" x="268.473" y="67.4599" width="253.93" height="223.187" filterUnits="userSpaceOnUse" color-interpolation-filters="sRGB">
<feFlood flood-opacity="0" result="BackgroundImageFix"/>
<feColorMatrix in="SourceAlpha" type="matrix" values="0 0 0 0 0 0 0 0 0 0 0 0 0 0 0 0 0 0 127 0" result="hardAlpha"/>
<feOffset dy="14.5356"/>
<feGaussianBlur stdDeviation="14.5356"/>
<feColorMatrix type="matrix" values="0 0 0 0 0.0666667 0 0 0 0 0.0666667 0 0 0 0 0.0666667 0 0 0 0.08 0"/>
<feBlend mode="normal" in2="BackgroundImageFix" result="effect1_dropShadow"/>
<feBlend mode="normal" in="SourceGraphic" in2="effect1_dropShadow" result="shape"/>
</filter>
<filter id="filter1_d" x="10.9319" y="147.627" width="255.107" height="241.133" filterUnits="userSpaceOnUse" color-interpolation-filters="sRGB">
<feFlood flood-opacity="0" result="BackgroundImageFix"/>
<feColorMatrix in="SourceAlpha" type="matrix" values="0 0 0 0 0 0 0 0 0 0 0 0 0 0 0 0 0 0 127 0" result="hardAlpha"/>
<feOffset dy="14.5356"/>
<feGaussianBlur stdDeviation="14.5356"/>
<feColorMatrix type="matrix" values="0 0 0 0 0.0666667 0 0 0 0 0.0666667 0 0 0 0 0.0666667 0 0 0 0.08 0"/>
<feBlend mode="normal" in2="BackgroundImageFix" result="effect1_dropShadow"/>
<feBlend mode="normal" in="SourceGraphic" in2="effect1_dropShadow" result="shape"/>
</filter>
<filter id="filter2_d" x="208.336" y="226.036" width="268.628" height="225.774" filterUnits="userSpaceOnUse" color-interpolation-filters="sRGB">
<feFlood flood-opacity="0" result="BackgroundImageFix"/>
<feColorMatrix in="SourceAlpha" type="matrix" values="0 0 0 0 0 0 0 0 0 0 0 0 0 0 0 0 0 0 127 0" result="hardAlpha"/>
<feOffset dy="14.5356"/>
<feGaussianBlur stdDeviation="14.5356"/>
<feColorMatrix type="matrix" values="0 0 0 0 0.0666667 0 0 0 0 0.0666667 0 0 0 0 0.0666667 0 0 0 0.08 0"/>
<feBlend mode="normal" in2="BackgroundImageFix" result="effect1_dropShadow"/>
<feBlend mode="normal" in="SourceGraphic" in2="effect1_dropShadow" result="shape"/>
</filter>
<filter id="filter3_d" x="230.139" y="236.937" width="225.021" height="182.167" filterUnits="userSpaceOnUse" color-interpolation-filters="sRGB">
<feFlood flood-opacity="0" result="BackgroundImageFix"/>
<feColorMatrix in="SourceAlpha" type="matrix" values="0 0 0 0 0 0 0 0 0 0 0 0 0 0 0 0 0 0 127 0" result="hardAlpha"/>
<feOffset dy="3.6339"/>
<feGaussianBlur stdDeviation="3.6339"/>
<feColorMatrix type="matrix" values="0 0 0 0 0.0666667 0 0 0 0 0.0666667 0 0 0 0 0.0666667 0 0 0 0.04 0"/>
<feBlend mode="normal" in2="BackgroundImageFix" result="effect1_dropShadow"/>
<feBlend mode="normal" in="SourceGraphic" in2="effect1_dropShadow" result="shape"/>
</filter>
</defs>
</svg>
