<svg width="87" height="27" viewBox="0 0 87 27" fill="none" xmlns="http://www.w3.org/2000/svg">
<path fill-rule="evenodd" clip-rule="evenodd" d="M6.32606 25.4807L0 0.652582H6.79424L10.8287 17.6809L13.9829 1.52269H20.5089L24.122 17.6297L27.7005 0.652582H34.2318L33.042 5.88496C33.4307 5.25541 33.8778 4.65652 34.3825 4.08869L34.3833 4.08779C35.5054 2.82833 36.8842 1.84057 38.5027 1.12036C40.1609 0.3615 42.0679 0 44.1953 0C46.2838 0 48.1683 0.362355 49.8231 1.11917C51.4614 1.83859 52.844 2.82721 53.9491 4.09231C55.0276 5.30651 55.8427 6.66268 56.387 8.1568C56.5795 8.66566 56.7393 9.17735 56.8663 9.69164V0.652582H63.4221V19.4531H71.5566V0.652582H87V6.52474H78.1125V10.1577L86.5649 10.1266V15.9988L78.1125 16.0299V25.4807H56.8663V16.2071C56.7468 16.6864 56.5985 17.169 56.4221 17.6547C55.8992 19.1306 55.0964 20.5041 54.0268 21.7743C52.9457 23.062 51.5772 24.0934 49.944 24.8769C48.2779 25.6862 46.351 26.0711 44.1953 26.0711C42.019 26.0711 40.0726 25.6863 38.387 24.8782C36.7537 24.0951 35.3769 23.0652 34.2766 21.7814L34.27 21.7737L34.2634 21.7658C33.2159 20.4953 32.4259 19.1231 31.9047 17.6503L31.903 17.6455C31.492 16.4661 31.2408 15.3058 31.1585 14.1676L28.5859 25.4807H19.8546L17.2761 14.2691L14.9279 25.4807H6.32606ZM17.2272 9.27545L20.7077 24.4091H27.7307L32.8892 1.72415H28.5697L24.561 20.7422H23.722L19.6511 2.59425H14.8655L11.3229 20.7422H10.4528L5.9469 1.72415H1.37883L7.15883 24.4091H14.0576L17.2272 9.27545ZM49.4781 23.9119C50.9904 23.1868 52.2334 22.2442 53.2071 21.0841C54.2015 19.9032 54.937 18.6395 55.4135 17.2929C55.9107 15.9256 56.1593 14.61 56.1593 13.3463V12.6627C56.1593 11.2746 55.9003 9.89695 55.3824 8.52964C54.8852 7.16232 54.1394 5.91931 53.145 4.8006C52.1505 3.66117 50.8972 2.75999 49.3848 2.09705C47.8932 1.41339 46.1634 1.07156 44.1953 1.07156C42.1857 1.07156 40.4352 1.41339 38.9435 2.09705C37.4519 2.75999 36.1986 3.66117 35.1834 4.8006C34.189 5.91931 33.4432 7.16232 32.946 8.52964C32.4488 9.89695 32.2002 11.2746 32.2002 12.6627V13.3463C32.2002 14.61 32.4384 15.9256 32.9149 17.2929C33.3914 18.6395 34.1165 19.9032 35.0902 21.0841C36.0846 22.2442 37.338 23.1868 38.8503 23.9119C40.3626 24.637 42.1443 24.9996 44.1953 24.9996C46.2255 24.9996 47.9865 24.637 49.4781 23.9119ZM77.0409 14.9622L85.4934 14.9312V11.2021L77.0409 11.2332V5.45318H85.9284V1.72415H72.6282V24.4091H77.0409V14.9622ZM62.3505 20.5247V1.72415H57.9378V24.4091H71.5177V20.5247H62.3505ZM49.797 16.4653L49.8004 16.4587C50.3399 15.4157 50.6129 14.2803 50.6129 13.0356C50.6129 11.6971 50.3353 10.5355 49.8039 9.52592L49.7987 9.51604L49.7937 9.50606C49.2804 8.47944 48.5571 7.68958 47.6141 7.11333C46.6904 6.54882 45.565 6.24507 44.1953 6.24507C42.8018 6.24507 41.6669 6.55015 40.7453 7.11333C39.8002 7.69093 39.064 8.48411 38.5296 9.51603C38.0157 10.5276 37.7466 11.6928 37.7466 13.0356C37.7466 14.2863 38.0119 15.4263 38.5347 16.4718C39.0489 17.5003 39.7764 18.3161 40.7287 18.9356C41.6713 19.5156 42.8129 19.826 44.1953 19.826C45.5563 19.826 46.6754 19.516 47.5962 18.9379C48.5502 18.3181 49.2788 17.5016 49.7937 16.4718L49.797 16.4653ZM48.1729 19.8411C47.0542 20.5454 45.7283 20.8976 44.1953 20.8976C42.6415 20.8976 41.2949 20.5454 40.1555 19.8411C39.0368 19.116 38.177 18.1526 37.5762 16.951C36.9754 15.7495 36.675 14.4443 36.675 13.0356C36.675 11.5439 36.9754 10.2077 37.5762 9.02684C38.1977 7.82526 39.0678 6.88265 40.1865 6.19899C41.3053 5.51533 42.6415 5.1735 44.1953 5.1735C45.7283 5.1735 47.0542 5.51533 48.1729 6.19899C49.2916 6.88265 50.1514 7.82526 50.7522 9.02684C51.3737 10.2077 51.6844 11.5439 51.6844 13.0356C51.6844 14.4443 51.3737 15.7495 50.7522 16.951C50.1514 18.1526 49.2916 19.116 48.1729 19.8411Z" fill="white"/>
<path d="M47.246 12.8898C47.246 10.8677 45.8979 9.40723 44.0313 9.40723C42.1647 9.40723 40.8167 10.8677 40.8167 12.8898C40.8167 14.9119 42.1647 16.3724 44.0313 16.3724C45.8979 16.3724 47.246 14.9119 47.246 12.8898Z" fill="#54F996"/>
</svg>
