<svg width="345" height="253" viewBox="0 0 345 253" fill="none" xmlns="http://www.w3.org/2000/svg">
<rect width="345" height="253" rx="10" fill="#F5F5F5"/>
<path d="M193.625 148.688H152.375C150.734 148.688 149.16 148.036 148 146.875C146.839 145.715 146.188 144.141 146.188 142.5V109.5C146.188 107.859 146.839 106.285 148 105.125C149.16 103.964 150.734 103.312 152.375 103.312H193.625C195.266 103.312 196.84 103.964 198 105.125C199.161 106.285 199.812 107.859 199.812 109.5V142.5C199.812 144.141 199.161 145.715 198 146.875C196.84 148.036 195.266 148.688 193.625 148.688ZM152.375 107.438C151.828 107.438 151.303 107.655 150.917 108.042C150.53 108.428 150.312 108.953 150.312 109.5V142.5C150.312 143.047 150.53 143.572 150.917 143.958C151.303 144.345 151.828 144.562 152.375 144.562H193.625C194.172 144.562 194.697 144.345 195.083 143.958C195.47 143.572 195.688 143.047 195.688 142.5V109.5C195.688 108.953 195.47 108.428 195.083 108.042C194.697 107.655 194.172 107.438 193.625 107.438H152.375Z" fill="#C5C5C5"/>
<path d="M183.313 123.938C182.089 123.938 180.892 123.575 179.875 122.895C178.857 122.215 178.064 121.248 177.596 120.118C177.128 118.987 177.005 117.743 177.244 116.543C177.483 115.343 178.072 114.24 178.937 113.375C179.803 112.509 180.905 111.92 182.105 111.681C183.306 111.443 184.55 111.565 185.68 112.033C186.811 112.502 187.777 113.295 188.457 114.312C189.137 115.33 189.5 116.526 189.5 117.75C189.5 119.391 188.848 120.965 187.688 122.125C186.527 123.286 184.954 123.938 183.313 123.938ZM183.313 115.688C182.905 115.688 182.506 115.808 182.167 116.035C181.827 116.262 181.563 116.584 181.407 116.961C181.251 117.338 181.21 117.752 181.29 118.152C181.369 118.552 181.566 118.92 181.854 119.208C182.143 119.497 182.51 119.693 182.91 119.773C183.31 119.852 183.725 119.812 184.102 119.656C184.479 119.499 184.801 119.235 185.027 118.896C185.254 118.557 185.375 118.158 185.375 117.75C185.375 117.203 185.158 116.678 184.771 116.292C184.384 115.905 183.86 115.688 183.313 115.688Z" fill="#C5C5C5"/>
<path d="M193.625 148.688C193.285 148.686 192.951 148.6 192.653 148.438C192.354 148.276 192.1 148.043 191.913 147.759L182.962 134.353C182.773 134.072 182.518 133.842 182.22 133.683C181.921 133.524 181.588 133.441 181.25 133.441C180.912 133.441 180.579 133.524 180.28 133.683C179.982 133.842 179.727 134.072 179.538 134.353L178.837 135.384C178.514 135.785 178.054 136.05 177.546 136.129C177.039 136.207 176.52 136.094 176.091 135.81C175.663 135.526 175.356 135.092 175.231 134.594C175.105 134.096 175.17 133.568 175.413 133.116L176.094 132.064C176.658 131.213 177.424 130.515 178.324 130.032C179.224 129.549 180.229 129.297 181.25 129.297C182.271 129.297 183.276 129.549 184.176 130.032C185.076 130.515 185.842 131.213 186.406 132.064L195.337 145.491C195.635 145.945 195.742 146.5 195.634 147.033C195.526 147.566 195.211 148.034 194.759 148.337C194.427 148.57 194.03 148.692 193.625 148.688V148.688Z" fill="#C5C5C5"/>
<path d="M152.375 148.688C151.98 148.686 151.593 148.572 151.261 148.358C150.802 148.062 150.48 147.596 150.364 147.062C150.248 146.529 150.348 145.971 150.642 145.511L163.492 125.67C164.05 124.808 164.813 124.099 165.713 123.606C166.613 123.112 167.622 122.851 168.648 122.844V122.844C169.669 122.844 170.674 123.096 171.574 123.578C172.473 124.061 173.24 124.758 173.804 125.608L187.046 145.491C187.289 145.943 187.354 146.471 187.228 146.969C187.103 147.467 186.796 147.901 186.367 148.185C185.939 148.469 185.42 148.582 184.912 148.504C184.404 148.425 183.944 148.16 183.622 147.759L170.36 127.898C170.173 127.614 169.919 127.381 169.62 127.219C169.322 127.057 168.988 126.971 168.648 126.969C168.307 126.973 167.971 127.062 167.672 127.228C167.374 127.393 167.121 127.631 166.936 127.918L154.107 147.739C153.921 148.029 153.665 148.268 153.362 148.434C153.06 148.6 152.72 148.687 152.375 148.688Z" fill="#C5C5C5"/>
</svg>
